<svg xmlns="http://www.w3.org/2000/svg" xmlns:xlink="http://www.w3.org/1999/xlink"><symbol fill="transparent" stroke="#2e5502" stroke-width="20" viewBox="0 0 596 531.98" id="basket" xmlns="http://www.w3.org/2000/svg"><path d="M263.3 45.08c6.1-11.8 1.5-26.3-10.2-32.4-11.7-6.1-26.3-1.5-32.4 10.2l-93.1 179.1H42c-17.7 0-32 14.3-32 32s14.3 32 32 32l51.9 207.5c7.1 28.5 32.7 48.5 62.1 48.5h284c29.4 0 55-20 62.1-48.5l51.9-207.5c17.7 0 32-14.3 32-32s-14.3-32-32-32h-85.6l-93.1-179.1c-6.1-11.7-20.6-16.3-32.4-10.2-11.8 6.1-16.3 20.6-10.2 32.4l81.6 156.9H181.7zM202 313.98v96c0 8.8-7.2 16-16 16s-16-7.2-16-16v-96c0-8.8 7.2-16 16-16s16 7.2 16 16zm96-16c8.8 0 16 7.2 16 16v96c0 8.8-7.2 16-16 16s-16-7.2-16-16v-96c0-8.8 7.2-16 16-16zm128 16v96c0 8.8-7.2 16-16 16s-16-7.2-16-16v-96c0-8.8 7.2-16 16-16s16 7.2 16 16z"/></symbol><symbol viewBox="0 0 236.44 175.7" id="rings" xmlns="http://www.w3.org/2000/svg"><path d="M174.586 22.79l8.081-6.536a4.416 4.416 0 00.751-6.05l-6.183-8.391a4.416 4.416 0 00-3.577-1.81h-28.882a4.416 4.416 0 00-3.534 1.766l-6.226 8.39a4.416 4.416 0 00.75 6.095l8.082 6.536a77.02 77.02 0 00-26.056 10.423 77.064 77.064 0 10.486 130.545A77.153 77.153 0 10174.586 22.79zM146.85 8.835h24.422l2.341 3.18-14.618 11.88-14.662-11.88zM77.206 166.85A68.232 68.232 0 11110.02 38.777a77.153 77.153 0 00.31 119.24 67.304 67.304 0 01-33.123 8.833zm68.188-68.188a68.055 68.055 0 01-27.116 54.41 68.364 68.364 0 01-.398-109.128 68.055 68.055 0 0127.514 54.718zm13.779 68.188a67.349 67.349 0 01-33.167-8.833 76.932 76.932 0 00-.353-119.24 68.144 68.144 0 0126.498-8.39h.75l3.49 2.782a4.416 4.416 0 002.782.971 4.416 4.416 0 002.782-.971l3.445-2.783h.75a68.408 68.408 0 01-6.977 136.42z" fill="#2E5502"/></symbol></svg>